<?xml version="1.0" standalone="no"?><svg xmlns="http://www.w3.org/2000/svg" viewBox="0 0 1440 320"><path fill="#3A9E3E" fill-opacity="1" d="M0,160L26.7,176C53.3,192,107,224,160,208C213.3,192,267,128,320,128C373.3,128,427,192,480,218.7C533.3,245,587,235,640,218.7C693.3,203,747,181,800,154.7C853.3,128,907,96,960,101.3C1013.3,107,1067,149,1120,144C1173.3,139,1227,85,1280,74.7C1333.3,64,1387,96,1413,112L1440,128L1440,320L1413.3,320C1386.7,320,1333,320,1280,320C1226.7,320,1173,320,1120,320C1066.7,320,1013,320,960,320C906.7,320,853,320,800,320C746.7,320,693,320,640,320C586.7,320,533,320,480,320C426.7,320,373,320,320,320C266.7,320,213,320,160,320C106.7,320,53,320,27,320L0,320Z"></path></svg>